<?xml version="1.0" encoding="UTF-8"?>
<svg width="40" height="40" viewBox="0 0 40 40" fill="none" xmlns="http://www.w3.org/2000/svg">
  <path d="M20 2C15.2 2 11.3 5.9 11.3 10.7C11.3 13.1 12.2 15.3 13.8 16.9L20 23.1L26.2 16.9C27.8 15.3 28.7 13.1 28.7 10.7C28.7 5.9 24.8 2 20 2Z" fill="#FF3366"/>
  <path d="M28.7 29.3C28.7 24.5 24.8 20.6 20 20.6C15.2 20.6 11.3 24.5 11.3 29.3C11.3 31.7 12.2 33.9 13.8 35.5L20 41.7L26.2 35.5C27.8 33.9 28.7 31.7 28.7 29.3Z" fill="#FFB800"/>
  <path d="M38 20C33.2 20 29.3 23.9 29.3 28.7C29.3 31.1 30.2 33.3 31.8 34.9L38 41.1L44.2 34.9C45.8 33.3 46.7 31.1 46.7 28.7C46.7 23.9 42.8 20 38 20Z" fill="#00CC66"/>
  <path d="M2 20C-2.8 20 -6.7 23.9 -6.7 28.7C-6.7 31.1 -5.8 33.3 -4.2 34.9L2 41.1L8.2 34.9C9.8 33.3 10.7 31.1 10.7 28.7C10.7 23.9 6.8 20 2 20Z" fill="#9933FF"/>
</svg> 